<svg height="147.67964" viewBox="0 0 502 147.67964" width="502" xmlns="http://www.w3.org/2000/svg"><path d="m56.094382 78.941663c33.0462595 0 48.956666-15.706427 48.956666-35.9004045v-.4095282c0-13.3826289-6.1288015-23.5565023-17.2472572-29.6413698-21.2154445 12.0065514-35.5661918 34.781655-35.5661918 60.8486751 0 1.7149974.0659011 3.4174423.1882888 5.1026274zm27.3850419-68.0067889c-7.0153282-2.88238827-15.59973-4.40752783-25.5476567-4.40752783h-53.44421664v72.41431673h43.95916654c-.1161114-1.6867542-.1804434-3.38763-.1804434-5.1026274 0-26.5644165 14.1028337-49.8934031 35.2131502-62.9041615zm9.0708146-.3954066c8.9829465-4.21139358 18.9983435-6.56814216 29.5582085-6.56814216 19.053261 0 36.346022 7.66963186 48.962943 20.07786606v99.5812576c-12.616921 12.409803-29.909682 20.079435-48.962943 20.079435-4.790381 0-9.46779-.486413-13.98986-1.407459l-45.2913101-59.4835811c27.537242-1.6318366 46.7113221-15.9119756 46.7113221-39.983134v-.4095283c0-11.0117586-3.671633-19.9884288-10.198979-26.5157751-2.0068451-2.0052761-4.2694493-3.7987272-6.7893815-5.370939zm83.0071325 18.3565923c10.239775 12.1571824 16.420356 27.8400733 16.420356 44.9429758 0 17.1029024-6.180581 32.7889314-16.420356 44.9445444zm-74.28779 111.6395882c-25.5555025-8.000706-44.8409864-30.316071-48.4278887-57.5128245h4.6821157zm-52.4321645-57.5128245c4.5346227 36.3978005 35.6634743 64.6568165 73.2710305 64.6568165 18.769259 0 35.922372-7.043571 48.962943-18.620196v16.178718h4.485981v-20.503085c12.627905-13.255534 20.388543-31.1869077 20.388543-50.8960414 0-19.7091338-7.760638-37.6405072-20.388543-50.894472v-12.5541581l63.969563 87.7253371 40.136903-54.8218632v101.9442826h105.846568v-4.08273h-77.491839v-65.6814217h46.319054c.872405 39.9658737 33.648783 72.2056297 73.818637 72.2056297 40.720599 0 73.843743-33.123144 73.843743-73.8406044 0-40.7143224-33.123144-73.8390356-73.843743-73.8390356-39.898404 0-72.500616 31.8082605-73.795101 71.3944188h-46.34259v-64.86707253h76.471941v-4.07959142h-104.82667v33.23768655l-40.136903 54.9536654-64.170404-88.19135195h-4.28514v16.17401085c-13.040571-11.57819421-30.193684-18.6217657-48.962943-18.6217657-12.179149 0-23.6788897 2.96554914-33.8151052 8.20939319-7.9222528-3.78460558-17.9062682-5.76163834-29.9536155-5.76163834h-58.3397263v142.79040715h4.48755056v-62.2153385zm309.4966335-11.6284047c1.292917-37.3973006 32.112661-67.42309346 69.822207-67.42309346 38.528603 0 69.870849 31.34224556 69.870849 69.86771026 0 38.5270334-31.342246 69.8708484-69.870849 69.8708484-37.980996 0-68.976476-30.460426-69.848881-68.2358737h17.41201v-4.0795915zm-57.373177-64.86707253h-16.811055v23.01674093zm-16.811055 30.63930063v34.2277719h19.381198v-60.7011821zm0 103.9887851h19.381198v-65.6814217h-19.381198z" fill="#fff" fill-rule="evenodd" opacity=".12"/></svg>