<svg height="63.737208" viewBox="0 0 140 63.7372083" width="140" xmlns="http://www.w3.org/2000/svg"><g fill="#eae8e1" fill-rule="evenodd"><path d="m15.6438515 22.0156032c9.2160884 0 13.6532535-4.3802784 13.6532535-10.012065v-.114211c0-3.73220729-1.7092275-6.56954249-4.809992-8.2665175-5.9166578 3.34844062-9.9188583 9.7000631-9.9188583 16.9693124 0 .4787238.0183788.9535092.0525108 1.4234811zm7.6372627-18.96603673c-1.956466-.80385329-4.3505223-1.22919102-7.1248445-1.22919102h-14.90476158v20.19522775h12.25952858c-.0323817-.4704095-.0503229-.9447573-.0503229-1.4234811 0-7.4079654 3.9330612-13.91405725 9.8204004-17.54255563zm2.5297093-.11027274c2.5052042-1.17449224 5.2983428-1.8317528 8.2433252-1.8317528 5.3136584 0 10.1363406 2.13894116 13.6550038 5.59940488v27.77166539c-3.5186632 3.4609013-8.3413454 5.5998425-13.6550038 5.5998425-1.3359631 0-2.6404196-.135653-3.9015547-.3925185l-12.6310427-16.5890465c7.679709-.4550938 13.0270619-4.4376027 13.0270619-11.1502372v-.1146486c0-3.07100844-1.0239612-5.57446228-2.8443367-7.39483773-.5596779-.55924035-1.1906831-1.05940601-1.893453-1.49787144zm23.1493995 5.11936837c2.855714 3.3900117 4.579382 7.7641639 4.579382 12.53346 0 4.7701714-1.723668 9.1447611-4.579382 12.5347728zm-20.7177105 31.1345465c-7.1270324-2.2312727-12.5054542-8.4546813-13.5057856-16.0394331h1.3057694zm-14.6225159-16.0394331c1.2646359 10.1507811 9.9459889 18.0317815 20.4341521 18.0317815 5.2344546 0 10.0181912-1.9643426 13.6550038-5.1928835v4.5119931h1.2510705v-5.7179918c3.5217264-3.6967625 5.6860478-8.6975439 5.6860478-14.1945527 0-5.4961336-2.1643214-10.496915-5.6860478-14.19323983v-3.50115961l17.8401171 24.46523344 11.1935586-15.2889658v28.4306763h29.5189633v-1.1386099h-21.6112698v-18.3175279h12.9176643c.2433002 11.1458613 9.3841225 20.1370282 20.5868715 20.1370282 11.356342 0 20.593872-9.2375302 20.593872-20.5934349 0-11.35415427-9.23753-20.5921221-20.593872-20.5921221-11.127045 0-20.2192957 8.87082961-20.5803077 19.9107941h-12.9242281v-18.09041865h21.3268358v-1.13773465h-29.2345293v9.26947432l-11.1935586 15.32572348-17.8961286-24.5951978h-1.195059v4.51068032c-3.6368126-3.22897847-8.4205492-5.19332112-13.6550038-5.19332112-3.3965756 0-6.6036745.82704558-9.4305076 2.2894722-2.2093932-1.05546769-4.9937799-1.6068314-8.3535979-1.6068314h-16.2700432v39.8220258h1.25150812v-17.3508911zm86.3138022-3.2429814c.3605742-10.42952609 8.9557222-18.80325317 19.4723292-18.80325317 10.745028 0 19.485893 8.7408653 19.485893 19.48458117 0 10.7450287-8.740865 19.4863316-19.485893 19.4863316-10.59231 0-19.236468-8.4949396-19.4797682-19.0299249h4.8559392v-1.1377347zm-16.0004876-18.09041865h-4.6883419v6.41901142zm-4.6883419 8.54482485v9.5455938h5.4051148v-16.92905412zm0 29.0008564h5.4051148v-18.3175279h-5.4051148z"/><path d="m32.7352516 63.7372083c1.6387755 0 2.6395445-.6003738 3.5523577-1.5512574l-.9880788-1.0003314c-.7504673.7001444-1.4383591 1.1381723-2.5143936 1.1381723-1.6759706 0-2.8894084-1.401164-2.8894084-3.1147674v-.0249427c0-1.714041 1.2134378-3.0898248 2.8894084-3.0898248 1.0007689 0 1.7512362.4375903 2.4518182 1.088287l.9885164-1.1381722c-.8384229-.8007902-1.8142492-1.3635313-3.4276444-1.3635313-2.651797 0-4.5159315 2.038733-4.5159315 4.528184v.0249426c0 2.5143936 1.9017673 4.5032413 4.453356 4.5032413zm9.0940007 0c2.6894297 0 4.5907593-2.0641132 4.5907593-4.5281839v-.0249427c0-2.4645083-1.876387-4.5032413-4.5658167-4.5032413s-4.5907593 2.0636757-4.5907593 4.528184v.0249426c0 2.4640707 1.876387 4.5032413 4.5658167 4.5032413zm.0249426-1.4134165c-1.738546 0-2.9769265-1.4134165-2.9769265-3.1147674v-.0249427c0-1.7013509 1.2134378-3.0898248 2.9519839-3.0898248 1.7389836 0 2.9773641 1.4134166 2.9773641 3.1147675v.0249426c0 1.7013509-1.2134378 3.0898248-2.9524215 3.0898248zm6.4299512 1.263323h6.1420168v-1.4011639h-4.6034495v-7.355017h-1.5385673zm7.7431595 0h6.1420168v-1.4011639h-4.6034494v-7.355017h-1.5385674zm7.7431596 0h6.5546644v-1.3757837h-5.0160971v-2.3520476h4.390343v-1.3757838h-4.390343v-2.2767821h4.9535217v-1.3757837h-6.492089zm12.4463795.1500935c1.6387755 0 2.6395444-.6003738 3.5523577-1.5512574l-.9880788-1.0003314c-.7504673.7001444-1.4383592 1.1381723-2.5143936 1.1381723-1.6759707 0-2.8894084-1.401164-2.8894084-3.1147674v-.0249427c0-1.714041 1.2134377-3.0898248 2.8894084-3.0898248 1.0007689 0 1.7512362.4375903 2.4518182 1.088287l.9885164-1.1381722c-.8384229-.8007902-1.8142492-1.3635313-3.4276445-1.3635313-2.6517969 0-4.5159314 2.038733-4.5159314 4.528184v.0249426c0 2.5143936 1.9017673 4.5032413 4.453356 4.5032413zm7.3178218-.1500935h1.5512575v-7.3305119h2.7769477v-1.425669h-7.1051529v1.425669h2.7769477zm6.0418086 0h1.5385674v-8.7561809h-1.5385674zm8.0560366.1500935c2.6894293 0 4.5907593-2.0641132 4.5907593-4.5281839v-.0249427c0-2.4645083-1.876387-4.5032413-4.5658167-4.5032413-2.6894296 0-4.5911969 2.0636757-4.5911969 4.528184v.0249426c0 2.4640707 1.876387 4.5032413 4.5662543 4.5032413zm.0249426-1.4134165c-1.7389836 0-2.977364-1.4134165-2.977364-3.1147674v-.0249427c0-1.7013509 1.2134377-3.0898248 2.9524214-3.0898248 1.7385461 0 2.9769263 1.4134166 2.9769263 3.1147675v.0249426c0 1.7013509-1.2134376 3.0898248-2.9519837 3.0898248zm6.4295137 1.263323h1.513625v-6.2295348l4.82837 6.2295348h1.288704v-8.7561809h-1.513625v6.0540611l-4.690967-6.0540611h-1.426107z"/></g></svg>